HIERARCHY
ROOT Pelvis
{
	OFFSET 0.000000 0.941512 0.000000
	CHANNELS 6 Xposition Yposition Zposition Zrotation Yrotation Xrotation 
	JOINT Pelvis_L_Hip
	{
		OFFSET 0.000000 0.000000 0.000000
		CHANNELS 3 Zrotation Yrotation Xrotation
		JOINT L_Hip
		{
			OFFSET 0.062321 -0.080322 -0.016990
			CHANNELS 3 Zrotation Yrotation Xrotation
			JOINT L_Knee
			{
				OFFSET 0.093051 -0.381305 -0.029784
				CHANNELS 3 Zrotation Yrotation Xrotation
				JOINT L_Ankle
				{
					OFFSET -0.010371 -0.431000 -0.033614
					CHANNELS 3 Zrotation Yrotation Xrotation
					End Site #name: L_Foot
					{
						OFFSET 0.069299 -0.038670 0.119418
					}
				}
			}
		}
	}
	JOINT Pelvis_R_Hip
	{
		OFFSET 0.000000 0.000000 0.000000
		CHANNELS 3 Zrotation Yrotation Xrotation
		JOINT R_Hip
		{
			OFFSET -0.055334 -0.094904 -0.002373
			CHANNELS 3 Zrotation Yrotation Xrotation
			JOINT R_Knee
			{
				OFFSET -0.064207 -0.384370 -0.019592
				CHANNELS 3 Zrotation Yrotation Xrotation
				JOINT R_Ankle
				{
					OFFSET 0.025418 -0.419734 -0.065953
					CHANNELS 3 Zrotation Yrotation Xrotation
					End Site #name: R_Foot
					{
						OFFSET -0.057233 -0.039888 0.132134
					}
				}
			}
		}
	}
	JOINT Pelvis_Spine1
	{
		OFFSET 0.000000 0.000000 0.000000
		CHANNELS 3 Zrotation Yrotation Xrotation
		JOINT Spine1
		{
			OFFSET -0.005562 0.124093 -0.043360
			CHANNELS 3 Zrotation Yrotation Xrotation
			JOINT Spine2
			{
				OFFSET 0.012244 0.139499 0.029894
				CHANNELS 3 Zrotation Yrotation Xrotation
				JOINT Spine3
				{
					OFFSET -0.002556 0.056561 0.009225
					CHANNELS 3 Zrotation Yrotation Xrotation
					JOINT Spine3_Neck
					{
						OFFSET 0.000000 0.000000 0.000000
						CHANNELS 3 Zrotation Yrotation Xrotation
						JOINT Neck
						{
							OFFSET -0.005205 0.217920 -0.024551
							CHANNELS 3 Zrotation Yrotation Xrotation
							End Site #name: Head
							{
								OFFSET 0.002365 0.091850 0.046637
							}
						}
					}
					JOINT Spine3_L_Collar
					{
						OFFSET 0.000000 0.000000 0.000000
						CHANNELS 3 Zrotation Yrotation Xrotation
						JOINT L_Collar
						{
							OFFSET 0.072225 0.116603 -0.009480
							CHANNELS 3 Zrotation Yrotation Xrotation
							JOINT L_Shoulder
							{
								OFFSET 0.115937 -0.058643 -0.021018
								CHANNELS 3 Zrotation Yrotation Xrotation
								JOINT L_Elbow
								{
									OFFSET 0.021994 -0.254722 -0.024492
									CHANNELS 3 Zrotation Yrotation Xrotation
									End Site #name: L_Wrist
									{
										OFFSET 0.048810 -0.240214 0.103329
									}
								}
							}
						}
					}
					JOINT Spine3_R_Collar
					{
						OFFSET 0.000000 0.000000 0.000000
						CHANNELS 3 Zrotation Yrotation Xrotation
						JOINT R_Collar
						{
							OFFSET -0.073372 0.120704 -0.024611
							CHANNELS 3 Zrotation Yrotation Xrotation
							JOINT R_Shoulder
							{
								OFFSET -0.108089 -0.054969 -0.020504
								CHANNELS 3 Zrotation Yrotation Xrotation
								JOINT R_Elbow
								{
									OFFSET -0.033684 -0.260739 0.009889
									CHANNELS 3 Zrotation Yrotation Xrotation
									End Site #name: R_Wrist
									{
										OFFSET -0.067980 -0.232763 0.118463
									}
								}
							}
						}
					}
				}
			}
		}
	}
}
MOTION
Frames: 11
Frame Time: 0.041667
0.000000 0.958501 0.000000 -1.973936 -2.652534 3.621731 0.000000 0.000000 0.000000 -9.828662 0.423265 -1.291632 12.104138 -1.138209 1.373771 2.564976 -14.759595 -10.975152 0.000000 0.000000 0.000000 7.711693 -0.268869 -0.830516 -6.997221 0.134850 -7.869754 5.997386 7.734557 7.205992 0.000000 0.000000 0.000000 3.681606 1.057101 -15.700589 -3.517106 4.198648 38.919408 2.288445 1.815259 -33.436322 0.000000 0.000000 0.000000 0.944970 -1.047557 16.435262 0.000000 0.000000 0.000000 30.170685 -6.057670 0.968905 -29.124501 1.921192 1.593086 -3.316969 -2.062070 -2.576491 0.000000 0.000000 0.000000 -27.116264 3.959722 2.751274 28.457538 -0.333330 7.487238 2.697918 4.172579 -8.187883 
0.002900 0.956883 0.001573 -1.921427 -1.931211 3.879300 0.000000 0.000000 0.000000 -10.211137 0.351528 -1.614666 12.685184 -0.979796 -0.160987 -7.269629 -16.466127 3.441499 0.000000 0.000000 0.000000 7.069863 -0.326013 -0.446888 -6.250128 -0.068169 -9.097100 5.944387 6.622572 7.899133 0.000000 0.000000 0.000000 4.542052 0.864606 -14.735968 -4.664908 4.330251 35.461241 2.821082 2.389356 -31.338638 0.000000 0.000000 0.000000 0.084435 -0.586149 17.432453 0.000000 0.000000 0.000000 30.173202 -8.142913 -0.800762 -30.135973 2.180352 1.824155 -2.282981 -0.722503 1.155259 0.000000 0.000000 0.000000 -28.749746 3.654644 3.284877 29.688775 -0.512925 7.750702 2.552497 3.816375 -7.450310 
0.003018 0.956418 0.002542 -1.889379 -1.971793 3.931051 0.000000 0.000000 0.000000 -10.266362 0.350051 -1.634132 12.975350 -1.034259 0.077219 -7.307371 -16.956049 3.280564 0.000000 0.000000 0.000000 7.020976 -0.323422 -0.449907 -6.278500 -0.059119 -9.035545 5.794180 6.696583 7.554032 0.000000 0.000000 0.000000 4.522521 0.868433 -14.757221 -4.647707 4.306636 35.295938 2.871941 2.418538 -31.100880 0.000000 0.000000 0.000000 0.109610 -0.599302 17.385017 0.000000 0.000000 0.000000 30.161026 -8.345284 -0.991290 -30.220349 2.258005 1.985897 -2.090769 -0.665067 1.052078 0.000000 0.000000 0.000000 -29.084360 3.661398 3.366594 30.104447 -0.533328 7.792887 2.153049 3.636785 -7.639424 
0.002400 0.955830 0.003712 -1.940591 -2.019032 3.963571 0.000000 0.000000 0.000000 -10.103118 0.382160 -1.504603 12.876766 -1.015488 -0.011399 -7.237084 -16.938689 3.189005 0.000000 0.000000 0.000000 7.049915 -0.339474 -0.390085 -6.150458 -0.069832 -9.042601 5.939624 6.839404 7.736387 0.000000 0.000000 0.000000 4.515691 0.873634 -14.795326 -4.601118 4.270416 35.154414 2.873539 2.413883 -30.851898 0.000000 0.000000 0.000000 0.146359 -0.615106 17.225407 0.000000 0.000000 0.000000 30.256839 -8.429655 -1.058543 -30.299723 2.315177 2.090030 -2.108061 -0.630966 1.236647 0.000000 0.000000 0.000000 -29.128667 3.630143 3.409532 30.157154 -0.567429 7.844690 2.166699 3.618993 -7.565301 
0.002471 0.955436 0.004678 -1.915403 -2.065469 4.032300 0.000000 0.000000 0.000000 -10.110577 0.419949 -1.398765 12.824627 -0.982065 -0.221395 -7.208882 -16.976866 3.130754 0.000000 0.000000 0.000000 7.004282 -0.344368 -0.362672 -6.120488 -0.088501 -9.188385 5.918436 6.843423 7.688341 0.000000 0.000000 0.000000 4.448647 0.892188 -14.900519 -4.530990 4.224840 35.029073 2.912495 2.383251 -30.659714 0.000000 0.000000 0.000000 0.122947 -0.595401 17.266048 0.000000 0.000000 0.000000 30.175995 -8.467412 -1.121497 -30.395652 2.392589 2.254135 -1.989816 -0.471824 1.725754 0.000000 0.000000 0.000000 -29.057239 3.562190 3.464894 30.102259 -0.576745 7.837840 2.034766 3.536801 -7.559858 
0.001943 0.955569 0.005047 -2.044000 -2.082359 4.306938 0.000000 0.000000 0.000000 -9.983288 0.327769 -1.659277 12.887792 -0.992056 -0.178164 -7.156142 -16.773914 3.141621 0.000000 0.000000 0.000000 7.200198 -0.288898 -0.667734 -6.205062 -0.063953 -9.027166 5.875589 6.962892 7.524032 0.000000 0.000000 0.000000 4.576262 0.917549 -15.198517 -4.447142 4.210080 35.245178 2.870866 2.373168 -30.988985 0.000000 0.000000 0.000000 0.100142 -0.585078 17.425651 0.000000 0.000000 0.000000 30.068040 -8.351044 -1.035080 -30.232826 2.433508 2.444593 -2.330216 -0.503023 2.213223 0.000000 0.000000 0.000000 -29.095945 3.460096 3.568844 30.185643 -0.591965 7.918816 1.963487 3.450155 -7.432542 
0.002282 0.955190 0.005940 -1.986328 -2.119741 4.215213 0.000000 0.000000 0.000000 -10.092082 0.413580 -1.424940 12.943028 -0.976527 -0.332508 -7.197000 -16.954761 3.126754 0.000000 0.000000 0.000000 7.060579 -0.314174 -0.519771 -6.044674 -0.078532 -9.046092 6.005771 7.011535 7.740205 0.000000 0.000000 0.000000 4.644944 0.899631 -15.103365 -4.465719 4.214430 35.169420 2.831835 2.364089 -30.843333 0.000000 0.000000 0.000000 0.090461 -0.570089 17.196043 0.000000 0.000000 0.000000 30.271998 -8.329967 -0.984333 -30.702346 2.478561 2.446507 -2.114697 -0.372151 2.406062 0.000000 0.000000 0.000000 -29.149470 3.410215 3.628901 30.237163 -0.517759 7.726465 1.921757 3.386766 -7.321580 
0.001992 0.955535 0.005757 -2.113303 -2.186268 4.468277 0.000000 0.000000 0.000000 -9.977252 0.325332 -1.674696 12.993229 -0.984227 -0.301886 -7.105024 -16.823535 3.050414 0.000000 0.000000 0.000000 7.296175 -0.239256 -0.915207 -6.148739 -0.043546 -8.804148 5.879123 7.037806 7.472061 0.000000 0.000000 0.000000 4.674313 0.941579 -15.460527 -4.377674 4.202155 35.385130 2.932869 2.421560 -31.076824 0.000000 0.000000 0.000000 0.136922 -0.604161 17.392984 0.000000 0.000000 0.000000 30.092413 -8.323911 -1.014012 -30.724089 2.614819 2.838297 -2.080486 -0.347994 2.451832 0.000000 0.000000 0.000000 -29.168901 3.532566 3.531821 30.084314 -0.534874 7.786614 2.119893 3.462109 -7.189770 
0.002113 0.955164 0.007188 -1.934220 -2.230187 4.157143 0.000000 0.000000 0.000000 -10.174015 0.506592 -1.165938 12.973219 -0.959791 -0.470319 -7.082644 -16.862576 3.001729 0.000000 0.000000 0.000000 6.979814 -0.347784 -0.351654 -5.933029 -0.087674 -9.049768 5.965480 7.110660 7.587758 0.000000 0.000000 0.000000 4.563973 0.934245 -15.319126 -4.395285 4.209854 35.343681 2.911062 2.423923 -30.914373 0.000000 0.000000 0.000000 0.188727 -0.635592 17.348222 0.000000 0.000000 0.000000 30.329330 -8.364194 -1.012887 -30.991700 2.660590 2.878891 -2.046829 -0.326735 2.486674 0.000000 0.000000 0.000000 -29.154147 3.603575 3.465489 30.200103 -0.523615 7.746697 1.933614 3.363943 -7.233543 
0.001937 0.955555 0.006563 -2.004822 -2.271575 4.603569 0.000000 0.000000 0.000000 -10.075721 0.303477 -1.768644 12.945009 -0.990024 -0.232665 -7.006991 -16.869080 2.887744 0.000000 0.000000 0.000000 7.090646 -0.195935 -1.064386 -5.996371 -0.043673 -8.694685 5.981360 7.158280 7.581822 0.000000 0.000000 0.000000 4.615717 0.994693 -15.846006 -4.278082 4.188864 35.628319 2.938538 2.444431 -31.212041 0.000000 0.000000 0.000000 0.196643 -0.650484 17.709614 0.000000 0.000000 0.000000 29.964274 -8.251140 -0.975589 -30.719874 2.717189 3.131719 -2.124437 -0.397165 2.311386 0.000000 0.000000 0.000000 -29.049598 3.629911 3.422583 29.955607 -0.537395 7.801878 1.963934 3.435263 -7.385432 
0.001439 0.955261 0.007251 -1.896050 -2.260649 4.419452 0.000000 0.000000 0.000000 -10.156566 0.393488 -1.510019 12.900555 -0.975156 -0.316947 -7.014876 -16.826652 2.917613 0.000000 0.000000 0.000000 6.978462 -0.258194 -0.757152 -6.015825 -0.055792 -8.818003 5.900676 7.241236 7.373336 0.000000 0.000000 0.000000 4.557993 0.987877 -15.748832 -4.299940 4.186969 35.530507 3.028862 2.458696 -30.994522 0.000000 0.000000 0.000000 0.343077 -0.763582 18.239121 0.000000 0.000000 0.000000 29.798117 -8.128604 -0.894535 -30.654429 2.679210 3.014087 -1.932084 -0.323480 2.289592 0.000000 0.000000 0.000000 -29.163772 3.592141 3.486147 29.984409 -0.467953 7.609557 2.107595 3.546042 -7.456225 
